# This file uses centimeters as units for non-parametric coordinates.

v 0.490935 -0.424256 -0.070608
v 0.001046 0.424257 -0.070608
v 0.001046 0.424257 0.070607
v 0.490935 -0.424256 0.070607
v -0.488843 -0.424257 -0.070608
v 0.472443 -0.413172 -0.070608
v 0.383730 -0.371214 -0.070608
v 0.291331 -0.338153 -0.070608
v 0.196136 -0.314308 -0.070608
v 0.099063 -0.299909 -0.070608
v 0.001046 -0.295093 -0.070608
v -0.096971 -0.299909 -0.070608
v -0.194044 -0.314308 -0.070608
v -0.289238 -0.338153 -0.070608
v -0.381637 -0.371214 -0.070608
v -0.470350 -0.413172 -0.070608
v -0.488843 -0.424257 0.070607
v -0.470350 -0.413172 0.070607
v -0.381637 -0.371214 0.070607
v -0.289238 -0.338153 0.070607
v -0.194044 -0.314308 0.070607
v -0.096971 -0.299909 0.070607
v 0.001046 -0.295093 0.070607
v 0.099063 -0.299909 0.070607
v 0.196136 -0.314308 0.070607
v 0.291331 -0.338153 0.070607
v 0.383730 -0.371214 0.070607
v 0.472443 -0.413172 0.070607
vt 0.460019 0.312500
vt 0.541667 0.312500
vt 0.541667 0.688440
vt 0.460019 0.688440
vt 0.426614 0.023670
vt 0.656250 0.156250
vt 0.426615 0.288830
vt 0.429614 0.283825
vt 0.440969 0.259817
vt 0.449917 0.234811
vt 0.456370 0.209048
vt 0.460267 0.182777
vt 0.461570 0.156250
vt 0.460267 0.129723
vt 0.456370 0.103452
vt 0.449917 0.077690
vt 0.440969 0.052683
vt 0.429614 0.028675
vt 0.623315 0.688440
vt 0.623315 0.312500
vt 0.426615 0.711170
vt 0.656250 0.843750
vt 0.426614 0.976330
vt 0.429614 0.971325
vt 0.440969 0.947317
vt 0.449917 0.922310
vt 0.456370 0.896548
vt 0.460267 0.870277
vt 0.461570 0.843750
vt 0.460267 0.817223
vt 0.456370 0.790952
vt 0.449917 0.765189
vt 0.440969 0.740183
vt 0.429614 0.716175
vt 0.378906 0.487198
vt 0.375000 0.487198
vt 0.375000 0.513742
vt 0.378906 0.513742
vt 0.382813 0.487198
vt 0.382813 0.513742
vt 0.625000 0.487198
vt 0.621094 0.487198
vt 0.621094 0.513742
vt 0.625000 0.513742
vt 0.386719 0.487198
vt 0.386719 0.513742
vt 0.617188 0.487198
vt 0.617188 0.513742
vt 0.390625 0.487198
vt 0.390625 0.513742
vt 0.613281 0.487198
vt 0.613281 0.513742
vt 0.391483 0.513742
vt 0.391483 0.487198
vt 0.609375 0.487198
vt 0.609375 0.513742
vt 0.605469 0.487198
vt 0.605469 0.513742
vt 0.601563 0.487198
vt 0.601563 0.513742
vt 0.600704 0.487198
vt 0.600704 0.513742
vn 0.866025 0.500000 0.000000
vn 0.866025 0.500000 0.000000
vn 0.866025 0.500000 0.000000
vn 0.866025 0.500000 0.000000
vn 0.000000 -0.000000 -1.000000
vn 0.000000 -0.000000 -1.000000
vn 0.000000 -0.000000 -1.000000
vn 0.000000 -0.000000 -1.000000
vn 0.000000 -0.000000 -1.000000
vn 0.000000 -0.000000 -1.000000
vn 0.000000 -0.000000 -1.000000
vn 0.000000 -0.000000 -1.000000
vn 0.000000 -0.000000 -1.000000
vn 0.000000 -0.000000 -1.000000
vn 0.000000 -0.000000 -1.000000
vn 0.000000 -0.000000 -1.000000
vn 0.000000 -0.000000 -1.000000
vn 0.000000 -0.000000 -1.000000
vn -0.866025 0.500000 -0.000000
vn -0.866025 0.500000 -0.000000
vn -0.866025 0.500000 -0.000000
vn -0.866025 0.500000 -0.000000
vn 0.000000 -0.000000 1.000000
vn 0.000000 -0.000000 1.000000
vn 0.000000 -0.000000 1.000000
vn 0.000000 -0.000000 1.000000
vn 0.000000 -0.000000 1.000000
vn 0.000000 -0.000000 1.000000
vn 0.000000 -0.000000 1.000000
vn 0.000000 -0.000000 1.000000
vn 0.000000 -0.000000 1.000000
vn 0.000000 -0.000000 1.000000
vn 0.000000 -0.000000 1.000000
vn 0.000000 -0.000000 1.000000
vn 0.000000 -0.000000 1.000000
vn 0.000000 -0.000000 1.000000
vn 0.195090 -0.980785 0.000000
vn 0.098019 -0.995185 0.000000
vn 0.098019 -0.995185 0.000000
vn 0.195090 -0.980785 0.000000
vn 0.290284 -0.956940 0.000000
vn 0.290284 -0.956940 0.000000
vn 0.000002 -1.000000 0.000000
vn 0.000002 -1.000000 0.000000
vn 0.382683 -0.923880 0.000000
vn 0.382683 -0.923880 0.000000
vn -0.098017 -0.995185 -0.000000
vn -0.098017 -0.995185 -0.000000
vn 0.443460 -0.896294 0.000000
vn 0.443460 -0.896294 0.000000
vn -0.195091 -0.980785 -0.000000
vn -0.195091 -0.980785 -0.000000
vn 0.514101 -0.857730 0.000000
vn 0.514101 -0.857730 0.000000
vn -0.290285 -0.956940 -0.000000
vn -0.290285 -0.956940 -0.000000
vn -0.382683 -0.923880 -0.000000
vn -0.382683 -0.923880 -0.000000
vn -0.443460 -0.896294 -0.000000
vn -0.443460 -0.896294 -0.000000
vn -0.514104 -0.857728 -0.000000
vn -0.514104 -0.857728 -0.000000
f 1/1/1 2/2/2 3/3/3 4/4/4
f 5/5/5 2/6/6 1/7/7 6/8/8 7/9/9 8/10/10 9/11/11 10/12/12 11/13/13 12/14/14 13/15/15 14/16/16 15/17/17 16/18/18
f 17/19/19 3/3/20 2/2/21 5/20/22
f 4/21/23 3/22/24 17/23/25 18/24/26 19/25/27 20/26/28 21/27/29 22/28/30 23/29/31 24/30/32 25/31/33 26/32/34 27/33/35 28/34/36
f 13/35/37 12/36/38 22/37/39 21/38/40
f 14/39/41 13/35/37 21/38/40 20/40/42
f 12/41/38 11/42/43 23/43/44 22/44/39
f 15/45/45 14/39/41 20/40/42 19/46/46
f 11/42/43 10/47/47 24/48/48 23/43/44
f 16/49/49 15/45/45 19/46/46 18/50/50
f 10/47/47 9/51/51 25/52/52 24/48/48
f 18/50/50 17/53/53 5/54/54 16/49/49
f 9/51/51 8/55/55 26/56/56 25/52/52
f 8/55/55 7/57/57 27/58/58 26/56/56
f 7/57/57 6/59/59 28/60/60 27/58/58
f 6/59/59 1/61/61 4/62/62 28/60/60
